<svg width="12" height="12" viewBox="0 0 12 12" fill="none" xmlns="http://www.w3.org/2000/svg">
  <path
    d="M2 4V9.5C2 9.76522 2.10536 10.0196 2.29289 10.2071C2.48043 10.3946 2.73478 10.5 3 10.5H9C9.26522 10.5 9.51957 10.3946 9.70711 10.2071C9.89464 10.0196 10 9.76522 10 9.5V4M4.75 8.5L7.25 6M4.75 6L7.25 8.5M1.5 1.5H10.5C10.7761 1.5 11 1.72386 11 2V3.5C11 3.77614 10.7761 4 10.5 4H1.5C1.22386 4 1 3.77614 1 3.5V2C1 1.72386 1.22386 1.5 1.5 1.5Z"
    stroke="currentColor" stroke-linecap="round" stroke-linejoin="round" />
</svg>