<svg width="70" height="18" viewBox="0 0 70 18" fill="none" xmlns="http://www.w3.org/2000/svg">
  <path
    d="M16.0505 12.125C15.3755 15.875 12.3254 18 8.55027 18C3.2251 18 0 14.25 0 9C0 3.775 3.30011 0 8.25026 0C11.8254 0 15.0505 1.775 15.7255 5.9H12.1504C11.7004 4.275 10.3753 3.2 8.30027 3.2C5.40017 3.2 3.65012 5.75 3.65012 9.05C3.65012 12.525 5.52518 14.825 8.52527 14.825C10.5003 14.825 11.9754 13.725 12.5004 12.125H16.0505Z"
    fill="currentColor" />
  <path d="M17.5134 0H20.8135V17.75H17.5134V0Z" fill="currentColor" />
  <path
    d="M27.4653 18C24.6652 18 22.6152 16.05 22.6152 12.325V5.25H25.9903V11.775C25.9903 13.975 27.0903 15.025 28.6404 15.025C29.9904 15.025 31.2155 14.1 31.2155 11.85V5.25H34.5906V17.75H31.9655L31.5405 16.225H31.2655C30.6904 16.95 29.7904 18 27.4653 18Z"
    fill="currentColor" />
  <path
    d="M43.8456 17.325C43.3206 17.65 42.4956 18 41.3956 18C39.2205 18 37.5954 17.075 37.5954 14V7.85H35.1454V5.475H35.9204C37.2204 5.475 37.8955 4.8 37.8955 3.725V2.1H40.8456V5.25H43.9456V7.85H40.8456V13.7C40.8456 14.7 41.2956 15.15 41.9956 15.15C42.4956 15.15 42.9456 14.925 43.1706 14.8L43.8456 17.325Z"
    fill="currentColor" />
  <path
    d="M56.4883 13.35C56.1133 16.1 53.7632 18 50.5381 18C46.463 18 44.0379 15.175 44.0379 11.55C44.0379 7.775 46.888 5 50.5131 5C53.5632 5 56.1383 6.9 56.4383 9.95H53.2132C53.0132 8.925 52.1632 7.85 50.4631 7.85C48.5631 7.85 47.313 9.325 47.313 11.55C47.313 13.75 48.4381 15.2 50.5131 15.2C51.9382 15.2 52.8632 14.4 53.1882 13.35H56.4883Z"
    fill="currentColor" />
  <path
    d="M65.1998 5C68.0499 5 70 6.85 70 10.225V17.75H66.6499V11.375C66.6499 9.25 65.5749 8.075 63.8248 8.075C62.3998 8.075 61.1247 9.05 61.1247 11.275V17.75H57.6746V0H61.1247V6.65H61.3997C61.9747 6.025 63.2748 5 65.1998 5Z"
    fill="currentColor" />
</svg>