<svg width="120" height="120" viewBox="0 0 120 120" fill="none" xmlns="http://www.w3.org/2000/svg">
  <path
    d="M24.5646 10.6229C33.177 10.171 41.8599 10.0436 50.5136 10.0078C53.0957 9.99707 54.3868 9.99173 55.1937 10.795C56.0005 11.5982 56.0005 12.8921 56.0005 15.48V104.52C56.0005 107.108 56.0005 108.402 55.1937 109.205C54.3868 110.008 53.0957 110.003 50.5136 109.992C41.8599 109.956 33.177 109.829 24.5646 109.377C14.8205 108.866 11.1404 105.175 10.6294 95.445C10.0113 83.6768 10 71.7769 10 59.9998C10 48.2228 10.0114 36.3231 10.6293 24.555C11.1332 14.9594 14.965 11.1266 24.5646 10.6229Z"
    fill="currentColor" />
  <path
    d="M95.4821 109.377C86.2341 109.862 76.9049 109.973 67.6178 109.999C65.0359 110.006 63.7449 110.009 62.9394 109.206C62.1339 108.403 62.1339 107.11 62.1339 104.524V79.5061C62.1339 71.756 62.1339 67.881 64.5425 65.4734C66.9511 63.0658 70.8276 63.0658 78.5807 63.0658H93.6008C101.404 63.0658 105.306 63.0658 107.723 65.5207C110.139 67.9756 110.077 71.8201 109.952 79.5091C109.868 84.7208 109.711 89.9348 109.422 95.445C108.906 105.265 105.287 108.863 95.4821 109.377Z"
    fill="currentColor" />
  <path
    d="M109.93 40.4782C110.056 48.1756 110.119 52.0243 107.702 54.4795C105.286 56.9347 101.386 56.9347 93.5859 56.9347L78.5807 56.9347C70.8276 56.9347 66.9511 56.9347 64.5425 54.5271C62.1339 52.1195 62.1339 48.2444 62.1339 40.4944V15.4758C62.1339 12.8897 62.1339 11.5967 62.9394 10.7937C63.7449 9.99067 65.0359 9.99419 67.6178 10.0012C76.9049 10.0266 86.2341 10.1376 95.4821 10.6229C105.216 11.1337 108.91 14.8145 109.422 24.555C109.688 29.6267 109.842 35.0479 109.93 40.4782Z"
    fill="currentColor" />
</svg>