<svg width="128" height="128" viewBox="0 0 128 128" fill="none" xmlns="http://www.w3.org/2000/svg">
<rect width="128" height="128" fill="black"/>
<path d="M38.0363 27.1836C44.4439 26.8474 50.9039 26.7527 57.3423 26.726C59.2634 26.718 60.224 26.7141 60.8243 27.3117C61.4246 27.9093 61.4246 28.8719 61.4246 30.7973V97.0431C61.4246 98.9685 61.4246 99.9312 60.8243 100.529C60.224 101.126 59.2634 101.122 57.3423 101.114C50.9039 101.088 44.4439 100.993 38.0363 100.657C30.7867 100.276 28.0486 97.5306 27.6684 90.2913C27.2086 81.5357 27.2002 72.6822 27.2002 63.9201C27.2002 55.158 27.2087 46.3046 27.6684 37.5491C28.0433 30.41 30.8942 27.5584 38.0363 27.1836Z" fill="white"/>
<path d="M90.7989 100.657C83.9184 101.018 76.9774 101.1 70.0678 101.119C68.1469 101.125 67.1864 101.127 66.5871 100.53C65.9878 99.9323 65.9878 98.9703 65.9878 97.0463V78.4327C65.9878 72.6667 65.9878 69.7837 67.7798 67.9924C69.5718 66.2011 72.4559 66.2011 78.2242 66.2011H89.3992C95.205 66.2011 98.108 66.2011 99.9058 68.0276C101.704 69.854 101.657 72.7144 101.564 78.435C101.502 82.3125 101.385 86.1917 101.17 90.2913C100.786 97.5977 98.0936 100.274 90.7989 100.657Z" fill="white"/>
<path d="M101.548 49.396C101.642 55.1228 101.689 57.9863 99.8908 59.813C98.093 61.6397 95.1914 61.6397 89.3881 61.6397L78.2242 61.6397C72.4559 61.6397 69.5718 61.6397 67.7798 59.8484C65.9878 58.0571 65.9878 55.1741 65.9878 49.4081V30.7942C65.9878 28.8701 65.9878 27.9081 66.5871 27.3107C67.1864 26.7133 68.1469 26.7159 70.0678 26.7211C76.9774 26.74 83.9184 26.8226 90.7989 27.1837C98.0412 27.5637 100.789 30.3022 101.17 37.5491C101.368 41.3224 101.482 45.3558 101.548 49.396Z" fill="white"/>
</svg>
